<svg width="23" height="22" viewBox="0 0 23 22" fill="none" xmlns="http://www.w3.org/2000/svg">
<g filter="url(#filter0_d_3_4)">
<path d="M11.1591 16.1591L6.0483 11.0483C5.64063 10.6406 5.36884 10.1667 5.23295 9.62642C5.10038 9.08617 5.10204 8.54924 5.23793 8.01562C5.37382 7.47869 5.64394 7.01136 6.0483 6.61364C6.46259 6.20597 6.9349 5.93584 7.4652 5.80327C7.99882 5.66738 8.53078 5.66738 9.06108 5.80327C9.5947 5.93916 10.0687 6.20928 10.483 6.61364L11.1591 7.26989L11.8352 6.61364C12.2528 6.20928 12.7268 5.93916 13.2571 5.80327C13.7874 5.66738 14.3177 5.66738 14.848 5.80327C15.3816 5.93584 15.8556 6.20597 16.2699 6.61364C16.6742 7.01136 16.9444 7.47869 17.0803 8.01562C17.2161 8.54924 17.2161 9.08617 17.0803 9.62642C16.9477 10.1667 16.6776 10.6406 16.2699 11.0483L11.1591 16.1591Z" fill="white"/>
</g>
<defs>
<filter id="filter0_d_3_4" x="0.034091" y="0.599426" width="22.25" height="20.5597" filterUnits="userSpaceOnUse" color-interpolation-filters="sRGB">
<feFlood flood-opacity="0" result="BackgroundImageFix"/>
<feColorMatrix in="SourceAlpha" type="matrix" values="0 0 0 0 0 0 0 0 0 0 0 0 0 0 0 0 0 0 127 0" result="hardAlpha"/>
<feOffset/>
<feGaussianBlur stdDeviation="2.5"/>
<feComposite in2="hardAlpha" operator="out"/>
<feColorMatrix type="matrix" values="0 0 0 0 0 0 0 0 0 0 0 0 0 0 0 0 0 0 0.14 0"/>
<feBlend mode="normal" in2="BackgroundImageFix" result="effect1_dropShadow_3_4"/>
<feBlend mode="normal" in="SourceGraphic" in2="effect1_dropShadow_3_4" result="shape"/>
</filter>
</defs>
</svg>
